<svg width="163" height="101" viewBox="0 0 163 101" fill="none" xmlns="http://www.w3.org/2000/svg">
<path d="M148.94 50.3388C148.94 23.0898 115.823 1.00007 74.97 1.00007C34.1175 1.00007 1 23.0898 1 50.3388C1 77.5878 34.1175 99.6775 74.97 99.6775C115.823 99.6775 148.94 77.5878 148.94 50.3388Z" stroke="#183B56"/>
<path d="M162 8.81389C144.001 7.83158 132.478 13.465 128.966 16.4045C131.775 18.2798 135.99 22.1718 137.746 23.8834C147.052 11.7385 157.793 8.77668 162 8.81389Z" stroke="#183B56"/>
<path d="M158.897 9.03029C144.52 8.3032 131.77 14.498 126.689 18.5956C130.38 20.6249 133.923 25.1386 135.494 26.6C143.452 14.325 154.586 9.4111 158.897 9.03029Z" fill="white"/>
</svg>
