<svg width="126" height="78" viewBox="0 0 126 78" fill="none" xmlns="http://www.w3.org/2000/svg">
<path d="M11.0586 39C11.0586 59.9868 36.5653 77 68.0293 77C99.4934 77 125 59.9868 125 39C125 18.0132 99.4934 1 68.0293 1C36.5653 1 11.0586 18.0132 11.0586 39Z" stroke="#183B56"/>
<path d="M0.999993 70.9819C14.8623 71.7385 23.7376 67.3997 26.4424 65.1357C24.2785 63.6914 21.0327 60.6938 19.6803 59.3756C12.5125 68.7294 4.24017 71.0106 0.999993 70.9819Z" stroke="#183B56"/>
<path d="M3.3896 70.8148C14.4626 71.3748 24.2826 66.6037 28.1959 63.4478C25.3529 61.8848 22.6242 58.4085 21.4147 57.2829C15.285 66.7369 6.71028 70.5215 3.3896 70.8148Z" fill="white"/>
</svg>
