<svg width="163" height="101" viewBox="0 0 163 101" fill="none" xmlns="http://www.w3.org/2000/svg">
<path d="M14.06 50.3388C14.06 23.0898 47.1775 1.00007 88.03 1.00007C128.883 1.00007 162 23.0898 162 50.3388C162 77.5878 128.883 99.6775 88.03 99.6775C47.1775 99.6775 14.06 77.5878 14.06 50.3388Z" stroke="#183B56"/>
<path d="M1 8.81389C18.9986 7.83158 30.5222 13.465 34.0341 16.4045C31.2245 18.2798 27.0102 22.1718 25.2543 23.8834C15.9477 11.7385 5.207 8.77668 1 8.81389Z" stroke="#183B56"/>
<path d="M4.10287 9.03029C18.4799 8.3032 31.2301 14.498 36.3111 18.5956C32.6198 20.6249 29.0768 25.1386 27.5064 26.6C19.5477 14.325 8.4144 9.4111 4.10287 9.03029Z" fill="white"/>
</svg>
