<svg width="176" height="108" viewBox="0 0 176 108" fill="none" xmlns="http://www.w3.org/2000/svg">
<path d="M160.885 54C160.885 83.2711 125.094 107 80.9427 107C36.7916 107 1 83.2711 1 54C1 24.7289 36.7916 1 80.9427 1C125.094 1 160.885 24.7289 160.885 54Z" stroke="#183B56" stroke-width="0.7"/>
<path d="M175 98.6063C155.548 99.6615 143.094 93.6101 139.299 90.4525C142.335 88.438 146.89 84.2572 148.787 82.4186C158.845 95.4647 170.453 98.6463 175 98.6063Z" stroke="#183B56" stroke-width="0.7"/>
<path d="M171.14 98.3735C155.696 99.1546 142 92.5001 136.542 88.0984C140.507 85.9185 144.313 81.0699 146 79.5001C154.549 92.686 166.509 97.9645 171.14 98.3735Z" fill="white"/>
</svg>
