<svg width="96" height="60" viewBox="0 0 96 60" fill="none" xmlns="http://www.w3.org/2000/svg">
<path d="M8.67658 30C8.67658 46.0163 28.1422 59 52.1542 59C76.1662 59 95.6318 46.0163 95.6318 30C95.6318 13.9837 76.1662 1 52.1542 1C28.1422 1 8.67658 13.9837 8.67658 30Z" stroke="#183B56" stroke-width="0.7"/>
<path d="M1.00026 54.4072C11.5794 54.9846 18.3526 51.6735 20.4168 49.9457C18.7655 48.8434 16.2884 46.5558 15.2563 45.5498C9.7861 52.6882 3.47303 54.4291 1.00026 54.4072Z" stroke="#183B56" stroke-width="0.7"/>
<path d="M2.82431 54.2798C11.2748 54.7072 18.769 51.066 21.7554 48.6576C19.5858 47.4648 17.5033 44.8118 16.5803 43.9528C11.9024 51.1677 5.35851 54.056 2.82431 54.2798Z" fill="white"/>
</svg>
