<svg width="36" height="36" viewBox="0 0 36 36" fill="none" xmlns="http://www.w3.org/2000/svg">
<path d="M18.0002 25.2C18.9943 25.2 19.8002 26.0058 19.8002 27C19.8002 27.9941 18.9943 28.8 18.0002 28.8C17.0061 28.8 16.2002 27.9941 16.2002 27C16.2002 26.0058 17.0061 25.2 18.0002 25.2Z" fill="#FF0000"/>
<path d="M14.7623 11.0515C14.5071 9.0679 16.0016 7.28981 17.9996 7.19995C19.9976 7.28981 21.4922 9.0679 21.2369 11.0515L19.9667 20.9277C19.8511 21.8255 18.905 22.5 17.9996 22.5C17.0942 22.5 16.1481 21.8255 16.0326 20.9277L14.7623 11.0515Z" fill="#FF0000"/>
<path fill-rule="evenodd" clip-rule="evenodd" d="M0 18C0 8.05887 8.05887 0 18 0C27.941 0 36 8.05887 36 18C36 27.941 27.941 36 18 36C8.05887 36 0 27.941 0 18ZM18 3.6C10.0471 3.6 3.6 10.0471 3.6 18C3.6 25.9529 10.0471 32.4 18 32.4C25.9529 32.4 32.4 25.9529 32.4 18C32.4 10.0471 25.9529 3.6 18 3.6Z" fill="#FF0000"/>
</svg>
