<svg width="96" height="60" viewBox="0 0 96 60" fill="none" xmlns="http://www.w3.org/2000/svg">
<path d="M87.3234 30C87.3234 46.0163 67.8578 59 43.8458 59C19.8338 59 0.368164 46.0163 0.368164 30C0.368164 13.9837 19.8338 1 43.8458 1C67.8578 1 87.3234 13.9837 87.3234 30Z" fill="#183B56"/>
<path d="M94.9997 54.4072C84.4206 54.9846 77.6474 51.6735 75.5832 49.9457C77.2345 48.8434 79.7116 46.5558 80.7437 45.5498C86.2139 52.6882 92.527 54.4291 94.9997 54.4072Z" fill="#183B56"/>
<path d="M87.3234 30C87.3234 46.0163 67.8578 59 43.8458 59C19.8338 59 0.368164 46.0163 0.368164 30C0.368164 13.9837 19.8338 1 43.8458 1C67.8578 1 87.3234 13.9837 87.3234 30Z" stroke="#183B56" stroke-width="0.5"/>
<path d="M94.9997 54.4072C84.4206 54.9846 77.6474 51.6735 75.5832 49.9457C77.2345 48.8434 79.7116 46.5558 80.7437 45.5498C86.2139 52.6882 92.527 54.4291 94.9997 54.4072Z" stroke="#183B56" stroke-width="0.5"/>
</svg>
