<svg width="126" height="78" viewBox="0 0 126 78" fill="none" xmlns="http://www.w3.org/2000/svg">
<path d="M114.941 39C114.941 59.9868 89.4347 77 57.9707 77C26.5066 77 1 59.9868 1 39C1 18.0132 26.5066 1 57.9707 1C89.4347 1 114.941 18.0132 114.941 39Z" stroke="#183B56" stroke-width="0.7"/>
<path d="M125 70.9819C111.138 71.7385 102.262 67.3997 99.5576 65.1357C101.721 63.6914 104.967 60.6938 106.32 59.3756C113.488 68.7294 121.76 71.0106 125 70.9819Z" stroke="#183B56" stroke-width="0.7"/>
<path d="M122.61 70.8148C111.537 71.3748 101.717 66.6037 97.8041 63.4478C100.647 61.8848 103.376 58.4085 104.585 57.2829C110.715 66.7369 119.29 70.5215 122.61 70.8148Z" fill="white"/>
</svg>
