<svg width="176" height="108" viewBox="0 0 176 108" fill="none" xmlns="http://www.w3.org/2000/svg">
<path d="M15.1145 54C15.1145 83.2711 50.9061 107 95.0573 107C139.208 107 175 83.2711 175 54C175 24.7289 139.208 1 95.0573 1C50.9061 1 15.1145 24.7289 15.1145 54Z" stroke="#183B56" stroke-width="0.7"/>
<path d="M1 98.6063C20.4519 99.6615 32.9059 93.6101 36.7014 90.4525C33.665 88.438 29.1104 84.2572 27.2127 82.4186C17.1546 95.4647 5.5467 98.6463 1 98.6063Z" stroke="#183B56" stroke-width="0.7"/>
<path d="M4.85974 98.3735C20.3037 99.1546 34 92.5001 39.458 88.0984C35.4928 85.9185 31.6869 81.0699 30 79.5001C21.4507 92.686 9.49122 97.9645 4.85974 98.3735Z" fill="white"/>
</svg>
