<svg width="176" height="108" viewBox="0 0 176 108" fill="none" xmlns="http://www.w3.org/2000/svg">
<path d="M160.885 54C160.885 83.2711 125.094 107 80.9427 107C36.7916 107 1 83.2711 1 54C1 24.7289 36.7916 1 80.9427 1C125.094 1 160.885 24.7289 160.885 54Z" fill="#183B56"/>
<path d="M175 98.6063C155.548 99.6615 143.094 93.6101 139.299 90.4525C142.335 88.438 146.89 84.2572 148.787 82.4185C158.845 95.4647 170.453 98.6463 175 98.6063Z" fill="#183B56"/>
<path d="M160.885 54C160.885 83.2711 125.094 107 80.9427 107C36.7916 107 1 83.2711 1 54C1 24.7289 36.7916 1 80.9427 1C125.094 1 160.885 24.7289 160.885 54Z" stroke="#183B56" stroke-width="0.7"/>
<path d="M175 98.6063C155.548 99.6615 143.094 93.6101 139.299 90.4525C142.335 88.438 146.89 84.2572 148.787 82.4185C158.845 95.4647 170.453 98.6463 175 98.6063Z" stroke="#183B56" stroke-width="0.7"/>
</svg>
