<svg width="124" height="76" viewBox="0 0 124 76" fill="none" xmlns="http://www.w3.org/2000/svg">
<path d="M10.0586 38C10.0586 58.9868 35.5653 76 67.0293 76C98.4934 76 124 58.9868 124 38C124 17.0132 98.4934 0 67.0293 0C35.5653 0 10.0586 17.0132 10.0586 38Z" fill="#183B56"/>
<path d="M-7.15256e-06 69.9819C13.8623 70.7385 22.7376 66.3997 25.4424 64.1357C23.2785 62.6914 20.0327 59.6938 18.6803 58.3756C11.5125 67.7294 3.24017 70.0106 -7.15256e-06 69.9819Z" fill="#183B56"/>
<path d="M2.3896 69.8148C13.4626 70.3748 23.2826 65.6037 27.1959 62.4478C24.3529 60.8848 21.6242 57.4085 20.4147 56.2829C14.285 65.7369 5.71028 69.5215 2.3896 69.8148Z" fill="#183B56"/>
</svg>
